<svg xmlns="http://www.w3.org/2000/svg" width="81" height="80" viewBox="0 0 81 80" fill="none">
  <g clip-path="url(#clip0_2351_10317)">
    <path d="M0.399658 0H80.3997V80H0.399658V0Z" fill="#6067F9" />
    <path
      d="M58.9787 16C55.4649 20.9043 51.068 24.3053 45.8724 26.579C44.0686 26.081 42.2177 25.8274 40.395 25.8462C38.5724 25.8274 36.7215 26.0904 34.9176 26.579C29.7221 24.2959 25.3252 20.9137 21.8114 16C20.7497 18.6682 16.6628 27.8755 21.5671 40.7469C21.5671 40.7469 19.9981 47.4645 22.8824 53.2331C22.8824 53.2331 27.0539 51.3447 30.3704 54.0035C33.8372 56.8127 32.7286 59.5185 35.1713 61.8485C37.2758 64 40.4044 64 40.4044 64C40.4044 64 43.533 64 45.6375 61.8579C48.0803 59.5373 46.9811 56.8315 50.4385 54.0129C53.7456 51.3541 57.9264 53.2425 57.9264 53.2425C60.8014 47.4739 59.2418 40.7563 59.2418 40.7563C64.1273 27.8755 60.0498 18.6682 58.9787 16ZM24.1789 38.9712C21.5107 33.4938 20.7779 25.9777 22.4596 20.0399C24.6863 25.677 27.7115 28.2043 31.3099 30.8726C29.7879 34.0388 26.9223 37.0264 24.1789 38.9712ZM31.8548 48.6201C29.7503 47.69 29.3087 45.8579 29.3087 45.8579C32.1742 44.054 36.3927 45.4351 36.5242 49.7005C34.307 48.357 33.5647 49.3623 31.8548 48.6201ZM40.395 63.7651C38.8918 63.7651 37.6704 62.6847 37.6704 61.36C37.6704 60.0352 38.8918 58.9548 40.395 58.9548C41.8983 58.9548 43.1196 60.0352 43.1196 61.36C43.1196 62.6941 41.8983 63.7651 40.395 63.7651ZM48.9447 48.6201C47.2347 49.3717 46.5019 48.357 44.2752 49.7005C44.4162 45.4351 48.6158 44.054 51.4907 45.8579C51.4907 45.8485 51.0398 47.69 48.9447 48.6201ZM56.6111 38.9712C53.8771 37.0264 51.0022 34.0482 49.4708 30.8726C53.0691 28.2043 56.1038 25.6676 58.321 20.0399C60.0216 25.9777 59.2887 33.5032 56.6111 38.9712Z"
      fill="#F7F7F7" />
  </g>
  <defs>
    <clipPath id="clip0_2351_10317">
      <path
        d="M0.399658 8C0.399658 3.58172 3.98138 0 8.39966 0H72.3997C76.8179 0 80.3997 3.58172 80.3997 8V72C80.3997 76.4183 76.8179 80 72.3997 80H8.39966C3.98138 80 0.399658 76.4183 0.399658 72V8Z"
        fill="white" />
    </clipPath>
  </defs>
</svg>